<svg width="1179" height="533" xmlns="http://www.w3.org/2000/svg" xmlns:xlink="http://www.w3.org/1999/xlink" overflow="hidden"><defs><clipPath id="clip0"><rect x="85" y="188" width="1179" height="533"/></clipPath></defs><g clip-path="url(#clip0)" transform="translate(-85 -188)"><path d="M87.5001 201.5C87.5001 197.082 91.0818 193.5 95.5002 193.5L347.5 193.5C351.918 193.5 355.5 197.082 355.5 201.5L355.5 233.5C355.5 237.918 351.918 241.5 347.5 241.5L95.5002 241.5C91.0818 241.5 87.5001 237.918 87.5001 233.5Z" stroke="#000000" stroke-width="1.33333" stroke-miterlimit="8" fill="#FFFFFF" fill-rule="evenodd"/><text font-family="DengXian,DengXian_MSFontService,sans-serif" font-weight="400" font-size="19" transform="translate(129.887 213)">《<tspan font-family="Times New Roman,Times New Roman_MSFontService,sans-serif" font-size="19" x="18.6667" y="0">…m6A methylome in </tspan><tspan font-family="Times New Roman,Times New Roman_MSFontService,sans-serif" font-size="19" x="-5.01334" y="22">Arabidopsis thaliana…</tspan><tspan font-size="19" x="167.82" y="22">》</tspan></text><path d="M110.5 220.5C110.5 216.082 114.082 212.5 118.5 212.5L370.5 212.5C374.918 212.5 378.5 216.082 378.5 220.5L378.5 252.5C378.5 256.918 374.918 260.5 370.5 260.5L118.5 260.5C114.082 260.5 110.5 256.918 110.5 252.5Z" stroke="#000000" stroke-width="1.33333" stroke-miterlimit="8" fill="#FFFFFF" fill-rule="evenodd"/><text font-family="DengXian,DengXian_MSFontService,sans-serif" font-weight="400" font-size="19" transform="translate(113.837 243)">《<tspan font-family="Times New Roman,Times New Roman_MSFontService,sans-serif" font-size="19" x="18.6667" y="0">…</tspan><tspan font-family="Times New Roman,Times New Roman_MSFontService,sans-serif" font-size="19" x="37.3333" y="0">Zea</tspan><tspan font-family="Times New Roman,Times New Roman_MSFontService,sans-serif" font-size="19" x="70" y="0">mays xxx m6A gene…</tspan>》</text><path d="M134.5 249.5C134.5 245.082 138.082 241.5 142.5 241.5L393.5 241.5C397.918 241.5 401.5 245.082 401.5 249.5L401.5 281.5C401.5 285.918 397.918 289.5 393.5 289.5L142.5 289.5C138.082 289.5 134.5 285.918 134.5 281.5Z" stroke="#000000" stroke-width="1.33333" stroke-miterlimit="8" fill="#FFFFFF" fill-rule="evenodd"/><text font-family="DengXian,DengXian_MSFontService,sans-serif" font-weight="400" font-size="19" transform="translate(137.286 272)">《<tspan font-family="Times New Roman,Times New Roman_MSFontService,sans-serif" font-size="19" x="18.6667" y="0">…</tspan><tspan font-family="Times New Roman,Times New Roman_MSFontService,sans-serif" font-size="19" x="37.3333" y="0">Zea</tspan><tspan font-family="Times New Roman,Times New Roman_MSFontService,sans-serif" font-size="19" x="70" y="0">mays xxx m6A gene…</tspan>》</text><path d="M164.5 279.5C164.5 275.082 168.082 271.5 172.5 271.5L424.5 271.5C428.918 271.5 432.5 275.082 432.5 279.5L432.5 311.5C432.5 315.918 428.918 319.5 424.5 319.5L172.5 319.5C168.082 319.5 164.5 315.918 164.5 311.5Z" stroke="#000000" stroke-width="1.33333" stroke-miterlimit="8" fill="#FFFFFF" fill-rule="evenodd"/><text font-family="DengXian,DengXian_MSFontService,sans-serif" font-weight="400" font-size="19" transform="translate(186.008 290)">《<tspan font-family="Times New Roman,Times New Roman_MSFontService,sans-serif" font-size="19" x="18.6667" y="0">…Arabidopsis thaliana xxx </tspan><tspan font-family="Times New Roman,Times New Roman_MSFontService,sans-serif" font-size="19" x="55.26" y="22">m6A gene…</tspan><tspan font-size="19" x="150.233" y="22">》</tspan></text><path d="M0.0327693-0.999463 7.6908-0.74838 15.3185 0.00808819 22.9454 1.26872 30.5049 3.03262 37.9952 5.23565 45.4863 7.87956 52.7855 10.9628 60.0191 14.4224 67.127 18.3223 74.1129 22.602 87.6142 32.1471 100.368 43.0164 112.304 55.0772 123.232 68.2034 133.154 82.2709 141.821 97.0931 149.23 112.538 152.375 120.526 155.202 128.569 157.591 136.741 159.603 144.976 161.175 153.34 162.307 161.704 162.999 170.069 163.051 171.806 161.052 171.866 161 170.155 161.003 170.207 160.316 161.895 160.322 161.947 159.197 153.634 159.205 153.685 157.642 145.372 157.654 145.425 155.654 137.237 155.665 137.281 153.29 129.156 153.307 129.207 150.494 121.207 150.507 121.241 147.382 113.304 147.411 113.37 140.036 97.995 140.074 98.0673 131.449 83.3173 131.495 83.3889 121.62 69.3889 121.669 69.4523 110.794 56.3898 110.852 56.4534 98.9767 44.4534 99.0389 44.5111 86.3514 33.6986 86.4227 33.754 72.9852 24.254 73.0401 24.2902 66.1026 20.0402 66.144 20.0642 59.0815 16.1892 59.131 16.2146 51.9435 12.7771 51.9859 12.7962 44.7359 9.73369 44.7922 9.75549 37.3547 7.13049 37.4053 7.14686 29.9678 4.95937 30.0228 4.97384 22.5228 3.22384 22.5869 3.23661 15.0244 1.98661 15.0888 1.99512 7.52631 1.24512 7.59223 1.24946-0.0327693 0.999463ZM166.01 170.384 162.25 178.5 158.013 170.623Z" transform="matrix(1.83697e-16 1 1 -1.83697e-16 298 319)"/><rect x="477.5" y="382.5" width="407" height="198" stroke="#000000" stroke-width="1.33333" stroke-miterlimit="8" fill="#FFFFFF"/><text font-family="Times New Roman,Times New Roman_MSFontService,sans-serif" font-weight="700" font-size="24" transform="translate(637.596 451)">m6AGC<tspan font-family="Arial,Arial_MSFontService,sans-serif" font-weight="400" font-size="21" x="-146.74" y="26">•</tspan><tspan font-weight="400" font-size="21" x="-116.74" y="26">A platform to store m6A</tspan><tspan font-weight="400" font-size="21" x="93.58" y="26">-</tspan><tspan font-weight="400" font-size="21" x="100.747" y="26">modified genes </tspan><tspan font-weight="400" font-size="21" x="39.8333" y="52">data</tspan><tspan font-family="Arial,Arial_MSFontService,sans-serif" font-weight="400" font-size="21" x="-147.247" y="78">•</tspan><tspan font-weight="400" font-size="21" x="-117.247" y="78">Comparison and comprehensive analysis</tspan></text><path d="M1-1.89971e-06 1.00009 48.598-0.999908 48.598-1 1.89971e-06ZM4.00009 47.2647 0.000104987 55.2647-3.99991 47.2647Z" transform="matrix(-1 0 0 1 680 580)"/><path d="M523.5 677C523.5 652.976 593.791 633.5 680.5 633.5 767.209 633.5 837.5 652.976 837.5 677 837.5 701.024 767.209 720.5 680.5 720.5 593.791 720.5 523.5 701.024 523.5 677Z" stroke="#000000" stroke-width="1.33333" stroke-miterlimit="8" fill="#FFFFFF" fill-rule="evenodd"/><text font-family="Times New Roman,Times New Roman_MSFontService,sans-serif" font-weight="400" font-size="21" transform="translate(611.599 672)">More biological <tspan font-size="21" x="16.9134" y="25">significance</tspan></text><path d="M917.5 262.834C917.5 256.574 922.574 251.5 928.834 251.5L1252.17 251.5C1258.43 251.5 1263.5 256.574 1263.5 262.834L1263.5 308.166C1263.5 314.426 1258.43 319.5 1252.17 319.5L928.834 319.5C922.574 319.5 917.5 314.426 917.5 308.166Z" stroke="#000000" stroke-width="1.33333" stroke-miterlimit="8" fill="#FFFFFF" fill-rule="evenodd"/><text font-family="Times New Roman,Times New Roman_MSFontService,sans-serif" font-weight="400" font-size="21" transform="translate(962.852 280)">More sample data in different <tspan font-size="21" x="-7.52667" y="25">conditions uploaded from users</tspan></text><path d="M1090.91 319.041 1090.59 326.703 1089.71 334.339 1088.26 341.973 1086.24 349.538 1083.72 357.038 1080.63 364.533 1077.11 371.836 1073.08 379.072 1068.62 386.179 1063.71 393.158 1058.37 400.009 1052.65 406.669 1046.56 413.139 1040.08 419.427 1026.15 431.349 1011.03 442.271 994.834 452.186 977.764 460.846 959.95 468.248 950.778 471.389 941.489 474.214 932.072 476.599 922.593 478.608 912.985 480.178 903.377 481.308 893.707 481.999 890.661 482.078 890.609 480.078 893.632 480 893.587 480.003 903.212 479.315 903.166 479.319 912.729 478.194 912.684 478.201 922.247 476.638 922.201 476.647 931.638 474.647 931.6 474.656 940.975 472.281 940.93 472.293 950.18 469.481 950.147 469.491 959.272 466.366 959.212 466.389 976.962 459.014 976.893 459.046 993.893 450.421 993.823 450.46 1009.95 440.585 1009.89 440.627 1024.95 429.752 1024.88 429.803 1038.76 417.928 1038.71 417.97 1045.15 411.72 1045.12 411.752 1051.18 405.314 1051.15 405.349 1056.84 398.724 1056.81 398.76 1062.12 391.948 1062.09 391.988 1066.96 385.05 1066.94 385.093 1071.37 378.031 1071.35 378.076 1075.35 370.889 1075.32 370.94 1078.82 363.69 1078.8 363.744 1081.86 356.307 1081.84 356.369 1084.34 348.931 1084.32 348.992 1086.32 341.492 1086.3 341.563 1087.74 334.001 1087.73 334.073 1088.6 326.51 1088.6 326.584 1088.91 318.959ZM892.071 485.042 883.971 481.25 891.865 477.045Z"/></g></svg>