<svg width="1179" height="532" xmlns="http://www.w3.org/2000/svg" xmlns:xlink="http://www.w3.org/1999/xlink" overflow="hidden"><defs><clipPath id="clip0"><rect x="85" y="188" width="1179" height="532"/></clipPath></defs><g clip-path="url(#clip0)" transform="translate(-85 -188)"><path d="M87.5001 201.5C87.5001 197.082 91.0818 193.5 95.5002 193.5L347.5 193.5C351.918 193.5 355.5 197.082 355.5 201.5L355.5 233.5C355.5 237.918 351.918 241.5 347.5 241.5L95.5002 241.5C91.0818 241.5 87.5001 237.918 87.5001 233.5Z" stroke="#000000" stroke-width="1.33333" stroke-miterlimit="8" fill="#FFFFFF" fill-rule="evenodd"/><text font-family="DengXian,DengXian_MSFontService,sans-serif" font-weight="400" font-size="19" transform="translate(129.887 213)">《<tspan font-family="Times New Roman,Times New Roman_MSFontService,sans-serif" font-size="19" x="18.6667" y="0">…m6A methylome in </tspan><tspan font-family="Times New Roman,Times New Roman_MSFontService,sans-serif" font-size="19" x="-5.01334" y="22">Arabidopsis thaliana…</tspan><tspan font-size="19" x="167.82" y="22">》</tspan></text><path d="M110.5 220.5C110.5 216.082 114.082 212.5 118.5 212.5L370.5 212.5C374.918 212.5 378.5 216.082 378.5 220.5L378.5 252.5C378.5 256.918 374.918 260.5 370.5 260.5L118.5 260.5C114.082 260.5 110.5 256.918 110.5 252.5Z" stroke="#000000" stroke-width="1.33333" stroke-miterlimit="8" fill="#FFFFFF" fill-rule="evenodd"/><text font-family="DengXian,DengXian_MSFontService,sans-serif" font-weight="400" font-size="19" transform="translate(113.837 243)">《<tspan font-family="Times New Roman,Times New Roman_MSFontService,sans-serif" font-size="19" x="18.6667" y="0">…</tspan><tspan font-family="Times New Roman,Times New Roman_MSFontService,sans-serif" font-size="19" x="37.3333" y="0">Zea</tspan><tspan font-family="Times New Roman,Times New Roman_MSFontService,sans-serif" font-size="19" x="70" y="0">mays xxx m6A gene…</tspan>》</text><path d="M134.5 249.5C134.5 245.082 138.082 241.5 142.5 241.5L393.5 241.5C397.918 241.5 401.5 245.082 401.5 249.5L401.5 281.5C401.5 285.918 397.918 289.5 393.5 289.5L142.5 289.5C138.082 289.5 134.5 285.918 134.5 281.5Z" stroke="#000000" stroke-width="1.33333" stroke-miterlimit="8" fill="#FFFFFF" fill-rule="evenodd"/><text font-family="DengXian,DengXian_MSFontService,sans-serif" font-weight="400" font-size="19" transform="translate(137.286 272)">《<tspan font-family="Times New Roman,Times New Roman_MSFontService,sans-serif" font-size="19" x="18.6667" y="0">…</tspan><tspan font-family="Times New Roman,Times New Roman_MSFontService,sans-serif" font-size="19" x="37.3333" y="0">Zea</tspan><tspan font-family="Times New Roman,Times New Roman_MSFontService,sans-serif" font-size="19" x="70" y="0">mays xxx m6A gene…</tspan>》</text><path d="M164.5 279.5C164.5 275.082 168.082 271.5 172.5 271.5L424.5 271.5C428.918 271.5 432.5 275.082 432.5 279.5L432.5 311.5C432.5 315.918 428.918 319.5 424.5 319.5L172.5 319.5C168.082 319.5 164.5 315.918 164.5 311.5Z" stroke="#000000" stroke-width="1.33333" stroke-miterlimit="8" fill="#FFFFFF" fill-rule="evenodd"/><text font-family="DengXian,DengXian_MSFontService,sans-serif" font-weight="400" font-size="19" transform="translate(186.008 290)">《<tspan font-family="Times New Roman,Times New Roman_MSFontService,sans-serif" font-size="19" x="18.6667" y="0">…Arabidopsis thaliana xxx </tspan><tspan font-family="Times New Roman,Times New Roman_MSFontService,sans-serif" font-size="19" x="55.26" y="22">m6A gene…</tspan><tspan font-size="19" x="150.233" y="22">》</tspan></text><path d="M0.0327693-0.999463 7.6867-0.748514 15.3105-0.0554456 22.9296 1.14096 30.482 2.71436 37.9733 4.72882 45.4618 7.18304 52.7588 10.0138 60.0003 13.2252 74.0724 20.701 87.5835 29.5618 100.339 39.5525 112.276 50.7357 123.206 62.7964 133.133 75.7388 141.805 89.3759 149.217 103.697 152.364 110.999 155.195 118.421 157.586 125.971 159.599 133.584 161.173 141.265 162.307 149.012 163.015 157.757 161.022 157.918 160.316 149.206 160.323 149.27 159.198 141.582 159.208 141.638 157.645 134.013 157.658 134.068 155.658 126.506 155.672 126.552 153.297 119.052 153.316 119.106 150.503 111.731 150.519 111.771 147.394 104.521 147.424 104.585 140.049 90.3346 140.094 90.4116 131.469 76.8491 131.519 76.9211 121.644 64.0461 121.697 64.109 110.822 52.109 110.879 52.1673 99.0038 41.0423 99.0709 41.0998 86.3834 31.1623 86.4516 31.2112 73.0141 22.3987 73.0933 22.4456 59.0933 15.0081 59.1571 15.0391 51.9696 11.8516 52.0133 11.8698 44.7633 9.05731 44.8136 9.07527 37.3761 6.63777 37.4278 6.65319 29.9903 4.65319 30.046 4.66648 22.546 3.10398 22.5949 3.11289 15.0324 1.92539 15.097 1.93339 7.53446 1.24589 7.59223 1.24946-0.0327693 0.999463ZM165.97 156.366 162.25 164.5 157.975 156.644Z" transform="matrix(1.83697e-16 1 1 -1.83697e-16 298 319)"/><rect x="463.5" y="382.5" width="375" height="198" stroke="#000000" stroke-width="1.33333" stroke-miterlimit="8" fill="#FFFFFF"/><text font-family="Times New Roman,Times New Roman_MSFontService,sans-serif" font-weight="400" font-size="21" transform="translate(475.951 451)">A platform to store m6A<tspan font-size="21" x="210.32" y="0">-</tspan><tspan font-size="21" x="217.487" y="0">modified genes </tspan><tspan font-size="21" x="156.58" y="25">data</tspan><tspan font-size="21" x="-0.506653" y="76">Comparison and comprehensive analysis</tspan></text><path d="M651 580 651 626.82 649 626.82 649 580ZM654 625.486 650 633.486 646 625.486Z"/><path d="M493.5 675C493.5 650.976 564.015 631.5 651 631.5 737.985 631.5 808.5 650.976 808.5 675 808.5 699.024 737.985 718.5 651 718.5 564.015 718.5 493.5 699.024 493.5 675Z" stroke="#000000" stroke-width="1.33333" stroke-miterlimit="8" fill="#FFFFFF" fill-rule="evenodd"/><text font-family="Times New Roman,Times New Roman_MSFontService,sans-serif" font-weight="400" font-size="21" transform="translate(581.695 670)">More biological <tspan font-size="21" x="16.9133" y="25">significance</tspan></text><path d="M917.5 262.834C917.5 256.574 922.574 251.5 928.834 251.5L1252.17 251.5C1258.43 251.5 1263.5 256.574 1263.5 262.834L1263.5 308.166C1263.5 314.426 1258.43 319.5 1252.17 319.5L928.834 319.5C922.574 319.5 917.5 314.426 917.5 308.166Z" stroke="#000000" stroke-width="1.33333" stroke-miterlimit="8" fill="#FFFFFF" fill-rule="evenodd"/><text font-family="Times New Roman,Times New Roman_MSFontService,sans-serif" font-weight="400" font-size="21" transform="translate(962.852 280)">More sample data in different <tspan font-size="21" x="-7.52667" y="25">conditions uploaded from users</tspan></text><path d="M1090.75 319.049 1090.38 326.719 1089.3 334.37 1087.53 342.022 1085 349.599 1081.92 357.101 1078.2 364.603 1073.85 371.912 1068.94 379.149 1063.47 386.258 1057.43 393.233 1050.96 400.082 1043.93 406.74 1036.52 413.206 1028.61 419.484 1020.27 425.569 1011.6 431.409 993.108 442.316 973.358 452.223 952.482 460.874 930.675 468.268 919.51 471.404 908.164 474.225 896.628 476.608 885.031 478.614 873.369 480.181 861.581 481.31 849.794 481.999 844.628 482.109 844.586 480.109 849.733 480 849.696 480.002 861.446 479.314 861.409 479.317 873.159 478.192 873.121 478.196 884.746 476.634 884.709 476.64 896.271 474.64 896.24 474.646 907.74 472.271 907.701 472.28 919.013 469.467 918.984 469.475 930.109 466.35 930.058 466.366 951.808 458.991 951.746 459.014 972.559 450.389 972.493 450.419 992.181 440.544 992.121 440.576 1010.56 429.701 1010.51 429.733 1019.13 423.921 1019.1 423.942 1027.42 417.88 1027.38 417.904 1035.26 411.654 1035.22 411.684 1042.6 405.247 1042.57 405.274 1049.57 398.649 1049.53 398.688 1055.96 391.876 1055.94 391.908 1061.94 384.971 1061.9 385.015 1067.34 377.953 1067.3 378.001 1072.18 370.814 1072.14 370.864 1076.46 363.614 1076.42 363.681 1080.11 356.243 1080.08 356.307 1083.14 348.869 1083.12 348.934 1085.62 341.434 1085.59 341.525 1087.34 333.962 1087.33 334.048 1088.39 326.486 1088.38 326.576 1088.76 318.951ZM846.025 485.08 837.942 481.25 845.855 477.082Z"/></g></svg>